<svg xmlns="http://www.w3.org/2000/svg" width="115.477" height="108.783" viewBox="0 0 115.477 108.783">
    <defs>
        <linearGradient id="linear-gradient" x1=".124" y1=".755" x2=".906" y2=".27" gradientUnits="objectBoundingBox">
            <stop offset="0" stop-color="#dcfdee" stop-opacity="0"/>
            <stop offset=".629" stop-color="#d2f3e4"/>
        </linearGradient>
        <style>
            .cls-3{fill:#6583fe}.cls-5{fill:#01eca5}.cls-7{fill:#ffa8cf}.cls-8{fill:#fff}.cls-10{fill:#b7c5ff}.cls-11{fill:#ff7eb8}.cls-12{fill:#9fb0fe}
        </style>
    </defs>
    <g id="Group_37028" data-name="Group 37028" transform="translate(-4047 -6417.046)">
        <g id="post_1" data-name="post 1" transform="translate(4047 6417.046)">
            <g id="smartphone_1_" data-name="smartphone (1)">
                <g id="Group_1681" data-name="Group 1681">
                    <path id="Path_11" data-name="Path 11" d="M4.587 40.888c-5.406 8.886-5.975 24.271-2.016 33.889C6.039 83.2 12.939 91.108 21.995 92.1c3.33.364 6.734-.231 10.03.369 11.335 2.063 15.551 16.031 24.361 23.458 6.131 5.168 14.637 7 22.593 6s15.4-4.593 21.962-9.207c5.178-3.644 10.022-8.124 12.577-13.917 5.355-12.143-.945-26.727-10.733-35.689-3.048-2.792-6.446-5.254-8.993-8.509s-4.168-7.6-2.954-11.551c.968-3.152 3.575-5.6 4.562-8.743 1.344-4.282-.684-9.085-4.015-12.093s-7.738-4.52-12.1-5.557c-18.292-4.349-58.375-2.6-74.694 24.226z" transform="translate(0 -14.84)" style="fill:url(#linear-gradient)"/>
                </g>
                <g id="Group_1690" data-name="Group 1690" transform="translate(9.614 2.852)">
                    <g id="Group_1689" data-name="Group 1689" transform="translate(18.977)">
                        <g id="Group_1685" data-name="Group 1685">
                            <path id="Path_12" data-name="Path 12" d="M181.04 155.873h-42.506a6.766 6.766 0 0 1-6.766-6.766V63.249a6.766 6.766 0 0 1 6.766-6.766h42.506a6.766 6.766 0 0 1 6.766 6.766v85.858a6.766 6.766 0 0 1-6.766 6.766z" transform="translate(-130.64 -49.942)" style="opacity:.1;fill:#2626bc"/>
                            <path id="Path_13" data-name="Path 13" class="cls-3" d="M181.04 131.873h-42.506a6.766 6.766 0 0 1-6.766-6.766V39.249a6.766 6.766 0 0 1 6.766-6.766h42.506a6.766 6.766 0 0 1 6.766 6.766v85.858a6.766 6.766 0 0 1-6.766 6.766z" transform="translate(-130.64 -31.355)"/>
                            <path id="Path_14" data-name="Path 14" d="M131.77 75.392h56.038v80.035H131.77z" transform="translate(-130.642 -64.587)" style="fill:#02ffb3"/>
                            <path id="Path_15" data-name="Path 15" class="cls-5" d="M131.77 75.392h56.038v36.124H131.77z" transform="translate(-130.642 -64.587)"/>
                            <path id="Path_16" data-name="Path 16" d="M131.77 75.392h56.038v31.361H131.77z" transform="translate(-130.642 -64.587)" style="fill:#ffc4df"/>
                            <g id="Group_1682" data-name="Group 1682" transform="translate(1.127 25.119)">
                                <path id="Path_17" data-name="Path 17" class="cls-7" d="M145.463 150.234h-12.57a1.128 1.128 0 0 1-1.128-1.128v-9.124a1.128 1.128 0 0 1 1.128-1.128h12.57a1.128 1.128 0 0 1 1.128 1.128v9.124a1.128 1.128 0 0 1-1.128 1.128z" transform="translate(-131.766 -138.855)"/>
                                <path id="Path_18" data-name="Path 18" class="cls-7" d="M328.2 150.234h-12.57a1.128 1.128 0 0 1-1.128-1.128v-9.124a1.128 1.128 0 0 1 1.128-1.128h12.57a1.128 1.128 0 0 1 1.128 1.128v9.124a1.128 1.128 0 0 1-1.128 1.128z" transform="translate(-273.286 -138.855)"/>
                            </g>
                            <path id="Path_19" data-name="Path 19" class="cls-7" d="M231.89 138.855h-16.63a1.128 1.128 0 0 0-1.128 1.128v9.124a1.128 1.128 0 0 0 1.128 1.128h3.078a2.723 2.723 0 0 1 2.429 1.446 3.159 3.159 0 0 0 5.616 0 2.723 2.723 0 0 1 2.429-1.446h3.078a1.128 1.128 0 0 0 1.128-1.128v-9.124a1.128 1.128 0 0 0-1.128-1.128z" transform="translate(-194.429 -113.736)"/>
                            <g id="Group_1683" data-name="Group 1683" transform="translate(1.127 21.008)">
                                <path id="Path_20" data-name="Path 20" class="cls-8" d="M145.463 132.009h-12.57a1.128 1.128 0 0 1-1.128-1.128v-9.123a1.128 1.128 0 0 1 1.128-1.128h12.57a1.128 1.128 0 0 1 1.128 1.128v9.124a1.128 1.128 0 0 1-1.128 1.127z" transform="translate(-131.766 -120.63)"/>
                                <path id="Path_21" data-name="Path 21" class="cls-8" d="M328.2 132.009h-12.57a1.128 1.128 0 0 1-1.128-1.128v-9.123a1.128 1.128 0 0 1 1.128-1.128h12.57a1.128 1.128 0 0 1 1.128 1.128v9.124a1.127 1.127 0 0 1-1.128 1.127z" transform="translate(-273.286 -120.63)"/>
                            </g>
                            <path id="Path_22" data-name="Path 22" d="M177.168 129.129h-42.506a7.9 7.9 0 0 1-7.894-7.894V35.377a7.9 7.9 0 0 1 7.894-7.894h42.506a7.9 7.9 0 0 1 7.894 7.894v85.858a7.9 7.9 0 0 1-7.894 7.894zm-42.506-99.39a5.645 5.645 0 0 0-5.639 5.638v85.858a5.645 5.645 0 0 0 5.639 5.638h42.506a5.645 5.645 0 0 0 5.639-5.638V35.377a5.645 5.645 0 0 0-5.639-5.638z" transform="translate(-126.768 -27.483)" style="opacity:.7;fill:#2626bc"/>
                            <g id="Group_1684" data-name="Group 1684" transform="translate(24.076 5.045)">
                                <path id="Path_23" data-name="Path 23" class="cls-10" d="M242.531 52.108h-7.886a1.128 1.128 0 0 1 0-2.255h7.886a1.128 1.128 0 0 1 0 2.255z" transform="translate(-233.517 -49.853)"/>
                            </g>
                            <circle id="Ellipse_42" data-name="Ellipse 42" class="cls-10" cx="1.128" cy="1.128" r="1.128" transform="translate(37.224 5.044)"/>
                        </g>
                        <path id="Path_24" data-name="Path 24" class="cls-8" d="M201.182 275.268h-32.319a4.511 4.511 0 0 1-4.511-4.511v-29.842a4.511 4.511 0 0 1 4.511-4.511h32.319a4.511 4.511 0 0 1 4.511 4.511v29.842a4.511 4.511 0 0 1-4.511 4.511z" transform="translate(-155.875 -189.284)"/>
                        <g id="Group_1686" data-name="Group 1686" transform="translate(21.557 39.438)">
                            <circle id="Ellipse_43" data-name="Ellipse 43" class="cls-11" cx="7.59" cy="7.59" r="7.59"/>
                            <path id="Path_25" data-name="Path 25" class="cls-8" d="M246.882 224.267a3.747 3.747 0 1 0-6.423 2.621 3.733 3.733 0 0 0-1.071 2.619v1.105a7.562 7.562 0 0 0 2.255.841v-1.946a1.492 1.492 0 0 1 2.984 0v1.946a7.56 7.56 0 0 0 2.255-.841v-1.105a3.725 3.725 0 0 0-1.074-2.619 3.734 3.734 0 0 0 1.074-2.621zm-3.748 1.493a1.492 1.492 0 1 1 1.493-1.493 1.494 1.494 0 0 1-1.494 1.493z" transform="translate(-235.544 -216.421)"/>
                        </g>
                        <g id="Group_1687" data-name="Group 1687" transform="translate(13.508 59.724)">
                            <path id="Path_26" data-name="Path 26" class="cls-11" d="M190.422 292.289h-2.634a1.128 1.128 0 0 0 0 2.255h2.635a1.128 1.128 0 1 0 0-2.255z" transform="translate(-186.66 -292.289)"/>
                            <path id="Path_27" data-name="Path 27" class="cls-12" d="M216.81 312.561h-29.022a1.128 1.128 0 1 0 0 2.255h29.022a1.128 1.128 0 1 0 0-2.255z" transform="translate(-186.66 -307.989)"/>
                        </g>
                        <g id="Group_1688" data-name="Group 1688" transform="translate(13.508 71.659)">
                            <path id="Path_28" data-name="Path 28" class="cls-11" d="M193.805 345.206h-6.017a1.128 1.128 0 0 0 0 2.255h6.018a1.128 1.128 0 1 0 0-2.255z" transform="translate(-186.66 -345.206)"/>
                            <path id="Path_29" data-name="Path 29" class="cls-12" d="M216.81 365.478h-29.022a1.128 1.128 0 0 0 0 2.255h29.022a1.128 1.128 0 1 0 0-2.255z" transform="translate(-186.66 -360.906)"/>
                        </g>
                        <path id="Path_30" data-name="Path 30" class="cls-11" d="M231.89 120.63h-16.63a1.128 1.128 0 0 0-1.128 1.128v9.124a1.128 1.128 0 0 0 1.128 1.128h3.078a2.723 2.723 0 0 1 2.429 1.446 3.159 3.159 0 0 0 5.616 0 2.723 2.723 0 0 1 2.429-1.446h3.078a1.128 1.128 0 0 0 1.128-1.128v-9.124a1.128 1.128 0 0 0-1.128-1.128z" transform="translate(-194.429 -99.622)"/>
                        <path id="Path_31" data-name="Path 31" class="cls-3" d="M332.755 93.874h-4.664a1.128 1.128 0 1 0 0 2.255h4.664a1.128 1.128 0 1 0 0-2.255z" transform="translate(-281.811 -78.9)"/>
                    </g>
                    <path id="Path_32" data-name="Path 32" d="M62.85 385.964a3.223 3.223 0 1 1 3.223-3.223 3.227 3.227 0 0 1-3.223 3.223zm0-4.191a.968.968 0 1 0 .968.968.969.969 0 0 0-.968-.968z" transform="translate(-55.793 -300.119)" style="fill:#ff5ba8"/>
                    <path id="Path_33" data-name="Path 33" class="cls-5" d="M427.4 150.18a1.128 1.128 0 0 1-1.128-1.128 1.355 1.355 0 0 0-1.353-1.353 1.128 1.128 0 0 1 0-2.255 1.355 1.355 0 0 0 1.353-1.353 1.128 1.128 0 1 1 2.255 0 1.355 1.355 0 0 0 1.353 1.353 1.128 1.128 0 0 1 0 2.255 1.355 1.355 0 0 0-1.353 1.353 1.128 1.128 0 0 1-1.127 1.128z" transform="translate(-337.823 -116.918)"/>
                    <path id="Path_34" data-name="Path 34" class="cls-3" d="M413.4 196.9a1.128 1.128 0 0 1-1.128-1.128 1.355 1.355 0 0 0-1.353-1.353 1.128 1.128 0 0 1 0-2.255 1.355 1.355 0 0 0 1.353-1.353 1.128 1.128 0 0 1 2.255 0 1.355 1.355 0 0 0 1.353 1.353 1.128 1.128 0 0 1 0 2.255 1.355 1.355 0 0 0-1.353 1.353 1.128 1.128 0 0 1-1.127 1.128z" transform="translate(-326.98 -153.097)"/>
                    <path id="Path_35" data-name="Path 35" class="cls-5" d="M46.236 302.774a1.128 1.128 0 0 1-1.128-1.128 1.355 1.355 0 0 0-1.353-1.353 1.128 1.128 0 0 1 0-2.255 1.355 1.355 0 0 0 1.353-1.353 1.128 1.128 0 1 1 2.255 0 1.355 1.355 0 0 0 1.353 1.353 1.128 1.128 0 0 1 0 2.255 1.355 1.355 0 0 0-1.353 1.353 1.128 1.128 0 0 1-1.127 1.128z" transform="translate(-42.627 -235.096)"/>
                    <path id="Path_36" data-name="Path 36" class="cls-3" d="M76.132 332.423A1.128 1.128 0 0 1 75 331.3a1.355 1.355 0 0 0-1.353-1.353 1.128 1.128 0 0 1 0-2.255A1.355 1.355 0 0 0 75 326.334a1.128 1.128 0 1 1 2.255 0 1.355 1.355 0 0 0 1.353 1.353 1.128 1.128 0 1 1 0 2.255 1.355 1.355 0 0 0-1.353 1.353 1.128 1.128 0 0 1-1.123 1.128z" transform="translate(-65.78 -258.058)"/>
                </g>
            </g>
        </g>
    </g>
</svg>
