<svg xmlns="http://www.w3.org/2000/svg" xmlns:xlink="http://www.w3.org/1999/xlink" width="145.01" height="36.758" viewBox="0 0 145.01 36.758">
  <defs>
    <clipPath id="clip-path">
      <path id="Path_7248" d="M0,.341.164.3l.1-.021.18-.04L.523.225H.574l.1-.019h.01L.841.177H.848L.9.168H.93c.076-.013.15-.025.226-.036h.023L1.241.123h0L1.389.1,1.51.087h.047L1.612.08,1.847.055h.071L2.1.034,2.2.026h.111L2.526.009h.105L2.85,0h.479a13.83,13.83,0,0,1,10.5,4.9A13.374,13.374,0,0,1,16.77,15.97l-.006.03-.012.061-.008.039,0,.029v.031l-.014.068-.022.1v.012l-.006.03v.061l-.015.067v.011l-.006.028-.008.033v.046l-.018.073-.01.04-.013.055V16.8l-.009.034,0,.021v.022c-.006.026-.013.051-.021.077v.006l-.006.025-.01.036v.027l-.023.08-.028.1v.01l-.015.05v.036l-.023.077v.008l-.009.029-.011.034v.019l-.023.072v0l-.012.035-.015.047v.068l-.007.022v.019l-.023.066v.019l-.022.065v.023L16.343,18v0l-.013.036v.01l-.014.037v.011l-.022.059v.01l0,.016v.006l-.028.073v.006l-.007.02v.01l-.01.026v.025l-.028.07v.007l-.014.034-.02.048v.018l-.018.043-.006.014v.016l-.031.072v.012l-.006.016v.01l-.013.028v.02l-.025.057v0l-.016.036v0l-.013.032V18.9l-.022.048v.009l0,.013v.013L16,19.044v.012l-.034.072-.034.072v0l-.018.037v0l-.016.034v.007l-.022.043v.009l-.008.016v.008l-.036.071v.01l-.013.026L15.8,19.5l-.037.07-.018.034-.019.035v.012l-.022.043v.009l-.007.013-.041.075v0l-.014.027-.014.026-.031.054-.019.034v0l-.012.02v0l-.04.071v.006l-.044.074-.013.022v.178l-.019.031-.037.061-.021.033-.022.036-.025.039-.018.028c-.013.02-.026.041-.04.06v.014c.055-.074-.02.039-.18.266l-.047.067-.011.016L15.028,21l-.037.052-.024.035-.433.11c-.11.156-.239.338-.381.532l-.056.078.22-.317.016-.023-.033.045-.024.032-.019.026c-.014.02-.029.038-.044.057l-.05.063-.021.027-.009.012-.018.022-.034.042-.027.034-.015.018-.05.06-.006.007-.053.061-.017.02-.026.031-.046.053-.03.034-.011.012-.06.067c.05-.045.1-.089.148-.14a3.668,3.668,0,0,1-.507.429l-.012.009h-.042l-.01.006h-.072l-.012.007h-.094l-.009,0h-.005l-.013.006h-.6c-2.221.922-4.706,1.442-6.846,2.488A10.554,10.554,0,0,0,3.9,26.611c-.131.089-.146.046-.155.028s-.022-.039-.031-.058l-.027-.057-.023-.056-.021-.054a.4.4,0,0,1-.016-.053l-.014-.051L3.6,26.26a.472.472,0,0,0-.007-.05.436.436,0,0,1-.005-.048v-.138l.005-.043.008-.043.011-.042a.142.142,0,0,1,.013-.041.131.131,0,0,1,.015-.04l.016-.039.019-.038L3.7,25.7l.022-.036a.412.412,0,0,1,.024-.035l.026-.035.027-.034.029-.034.031-.032.032-.032.033-.031.033-.03.034-.032.036-.028.036-.029c.394-.3.914-.5,1.071-.748l-.892.159a.294.294,0,0,1-.149,0,.182.182,0,0,1-.053-.028.2.2,0,0,1-.058-.062l-.009-.016a.655.655,0,0,1-.034-.071.694.694,0,0,1-.041-.125.5.5,0,0,0-.011-.066c-.071-.729,1.463-.856,1.943-1.02a.644.644,0,0,1,.163-.321c.332-.339,1.892-.51,2.481-.721A5.644,5.644,0,0,0,10.784,20.5a4.737,4.737,0,0,1-2.161,1.186c-.884.057-.961-.716-.5-.977,1.918-1.261,3.3-3.485,5.107-4.444a3.706,3.706,0,0,1,.893-.336A12.229,12.229,0,0,0,11.412,4.351,12.678,12.678,0,0,0,.048.354Z" fill="none"/>
    </clipPath>
    <linearGradient id="linear-gradient" x1="0.185" y1="0.117" x2="0.606" y2="0.782" gradientUnits="objectBoundingBox">
      <stop offset="0" stop-color="#c7bff3"/>
      <stop offset="1" stop-color="#674cf3"/>
    </linearGradient>
    <clipPath id="clip-path-2">
      <path id="Path_7249" d="M2.049.252a12.6,12.6,0,0,1,12.082,16A11.9,11.9,0,0,0,11,2.38,13.659,13.659,0,0,0,3.336,0,13.876,13.876,0,0,0,1.52.114,13.545,13.545,0,0,0,0,.4L.045.413a12.639,12.639,0,0,1,2-.161Z" fill="none"/>
    </clipPath>
    <linearGradient id="linear-gradient-2" x1="0.194" y1="0.204" x2="0.875" y2="0.814" gradientUnits="objectBoundingBox">
      <stop offset="0" stop-color="#cec5ff"/>
      <stop offset="1" stop-color="#674cf3"/>
    </linearGradient>
    <clipPath id="clip-path-3">
      <path id="Path_7246" d="M17.021,25.521l-.164.039-.1.021-.18.04-.081.016h-.052l-.1.019h-.009l-.157.028-.051.009h-.032l-.226.036h-.024l-.061.009h-.006l-.142.02-.121.016h-.047l-.055.007-.235.025H15.1l-.18.017-.1.008h-.112l-.215.013h-.108l-.218.009H13.69A13.867,13.867,0,0,1,3.169,20.967,13.316,13.316,0,0,1,.226,9.916l.006-.03.012-.061.008-.039,0-.029V9.725a.4.4,0,0,1,.014-.067l.022-.1V9.542L.3,9.512V9.451l.015-.066V9.373l.006-.027.007-.033V9.282l.018-.073.01-.04.013-.055V9.092L.38,9.058l0-.021V9.015l.021-.077V8.932l.007-.025.01-.037V8.847l.022-.081.028-.1v-.01l.015-.05V8.573L.517,8.5V8.488l.009-.029.01-.034V8.4l.022-.072V8.322L.57,8.287.585,8.24V8.185L.6,8.163V8.144a.22.22,0,0,1,.019-.065V8.057l.022-.066V7.968L.665,7.9l.013-.036v-.01L.692,7.82V7.81l.023-.06V7.74l.006-.017V7.7l.028-.072v0L.757,7.6V7.594l.01-.025V7.544C.776,7.52.786,7.5.8,7.473V7.468l.013-.035.02-.048V7.368l.018-.042.006-.014V7.3l.031-.072V7.211L.889,7.2V7.19L.9,7.158V7.137L.926,7.08l.016-.04V7.034L.956,7V6.988L.978,6.94V6.906l.006-.013V6.879l.028-.061V6.807l.034-.072.035-.073V6.657L1.1,6.621V6.614l.016-.034V6.552l.022-.043V6.5l.007-.015v-.01L1.18,6.4V6.39l.014-.026.017-.034.036-.07.018-.034L1.283,6.2V6.183l.023-.042V6.133l.006-.013.041-.076.014-.027.015-.026.031-.054.02-.034v0l.012-.02V5.866L1.487,5.8V5.789l.044-.073V5.71l.013-.022.019-.031L1.6,5.6l.021-.033.023-.036.024-.039.019-.028.039-.06V5.382c-.055.073.02-.039.18-.265l.046-.067.011-.016L1.99,5l.037-.053.024-.035-.005.008c.11-.156.24-.337.382-.531l.056-.078-.22.316-.017.023L2.281,4.6,2.3,4.573l.019-.026.044-.057.05-.063L2.439,4.4l.009-.011.018-.022L2.5,4.324l.028-.033.015-.018.05-.06L2.6,4.207l.052-.062.017-.019.026-.03.047-.053.03-.034L2.781,4l.06-.067c-.05.045-.1.088-.148.14A3.617,3.617,0,0,1,3.2,3.641l.012-.009H3.26l.009-.007h.04l.007-.005h.029l.012-.007H3.45L3.459,3.6H4.511c2.224-.92,4.712-1.439,6.854-2.483A10.674,10.674,0,0,0,13.121.054c.131-.088.146-.046.155-.028l.031.058.027.057L13.358.2l.02.054A.543.543,0,0,1,13.4.3l.014.051.011.05a.468.468,0,0,0,.007.05A.21.21,0,0,0,13.433.5a.137.137,0,0,1,0,.047V.6a.378.378,0,0,1,0,.045l-.005.043a.176.176,0,0,1-.009.043l-.01.042A.13.13,0,0,1,13.4.814a.131.131,0,0,1-.015.04l-.017.039a.372.372,0,0,1-.019.038l-.021.037L13.3,1l-.024.035-.026.035-.027.034-.03.033-.03.033-.032.032-.033.031-.033.03-.035.029L13,1.32l-.036.028c-.4.3-.915.5-1.072.747l.893-.158a.289.289,0,0,1,.15,0,.182.182,0,0,1,.053.028.2.2,0,0,1,.058.062l.009.016a.5.5,0,0,1,.033.07.769.769,0,0,1,.041.125.593.593,0,0,1,.01.065c.07.727-1.466.854-1.946,1.018a.648.648,0,0,1-.162.32c-.333.338-1.9.509-2.484.719A5.662,5.662,0,0,0,6.228,6.15a4.748,4.748,0,0,1,2.16-1.184c.885-.057.964.715.5.975-1.92,1.258-3.3,3.478-5.114,4.436a3.747,3.747,0,0,1-.894.336A12.169,12.169,0,0,0,5.327,20.987a12.674,12.674,0,0,0,9.643,4.674,12.907,12.907,0,0,0,2.007-.155Z" fill="none"/>
    </clipPath>
    <linearGradient id="linear-gradient-3" x1="0.862" y1="0.04" x2="0.5" y2="0.968" gradientUnits="objectBoundingBox">
      <stop offset="0" stop-color="#00705f"/>
      <stop offset="1" stop-color="#2aeccf"/>
    </linearGradient>
    <clipPath id="clip-path-4">
      <path id="Path_7247" d="M13.127,16.007A12.6,12.6,0,0,1,1.031,0,11.894,11.894,0,0,0,4.164,13.878a13.679,13.679,0,0,0,7.675,2.381,14.07,14.07,0,0,0,1.819-.114,13.729,13.729,0,0,0,1.521-.281l-.044-.013a12.673,12.673,0,0,1-2.007.156Z" fill="none"/>
    </clipPath>
    <linearGradient id="linear-gradient-4" x1="0.123" y1="0.064" x2="0.93" y2="0.978" gradientUnits="objectBoundingBox">
      <stop offset="0" stop-color="#007160"/>
      <stop offset="1" stop-color="#43f6db"/>
    </linearGradient>
    <linearGradient id="linear-gradient-5" x1="0.5" x2="0.406" y2="0.985" gradientUnits="objectBoundingBox">
      <stop offset="0" stop-color="#8039db"/>
      <stop offset="1" stop-color="#401d6e"/>
    </linearGradient>
    <linearGradient id="linear-gradient-6" x1="1.895" y1="0.5" x2="-0.927" y2="0.5" xlink:href="#linear-gradient-5"/>
  </defs>
  <g id="LOGO_B_1" data-name="LOGO B 1" transform="translate(-407.882 9498)">
    <g id="Logo" transform="translate(266.164 -9601.999)">
      <path id="Path_4020" d="M393.336,339.482a.852.852,0,0,1-.616-.253.81.81,0,0,1-.26-.6V321.558a.811.811,0,0,1,.26-.6.876.876,0,0,1,1.232,0,.811.811,0,0,1,.26.6v16.217H405.6a.855.855,0,0,1,.616.253.823.823,0,0,1,0,1.2.853.853,0,0,1-.616.253Z" transform="translate(-250.741 -204.749)" fill="#002f4f"/>
      <path id="Path_4021" d="M429.4,323.865a.809.809,0,0,1-.26-.6v-1.707a.81.81,0,0,1,.26-.6.876.876,0,0,1,1.232,0,.812.812,0,0,1,.26.6v1.707a.81.81,0,0,1-.26.6.876.876,0,0,1-1.232,0Zm0,15.364a.809.809,0,0,1-.26-.6v-11.95a.811.811,0,0,1,.26-.6.877.877,0,0,1,1.232,0,.813.813,0,0,1,.26.6v11.95a.81.81,0,0,1-.26.6.876.876,0,0,1-1.232,0Z" transform="translate(-271.491 -204.749)" fill="#002f4f"/>
      <path id="Path_4022" d="M443.2,346.67a.773.773,0,0,1-.3-.37l-5.257-12.268a.817.817,0,0,1-.027-.684.831.831,0,0,1,.466-.465.82.82,0,0,1,.684-.028.836.836,0,0,1,.465.466l4.463,10.4,4.463-10.4a.833.833,0,0,1,.466-.466.82.82,0,0,1,.684.028.835.835,0,0,1,.466.465.82.82,0,0,1-.027.684L444.484,346.3a.775.775,0,0,1-.3.37.881.881,0,0,1-.986,0Z" transform="translate(-276.339 -211.707)" fill="#002f4f"/>
      <path id="Path_4023" d="M470.622,346.42a4.526,4.526,0,0,1-2.163-1.315,4.442,4.442,0,0,1-1.068-2.231,16.9,16.9,0,0,1-.246-3.053,10.609,10.609,0,0,1,.41-3.163,4.877,4.877,0,0,1,3.437-3.437,10.6,10.6,0,0,1,3.163-.41,10.907,10.907,0,0,1,2.971.356,5.612,5.612,0,0,1,2.095,1.068,4.987,4.987,0,0,1,1.341,1.916,8.958,8.958,0,0,1,.575,2.738,1.113,1.113,0,0,1-.055.356.773.773,0,0,1-.192.3.671.671,0,0,1-.274.2.912.912,0,0,1-.356.069H468.9a13.383,13.383,0,0,0,.2,2.642,3.19,3.19,0,0,0,.671,1.493,3.118,3.118,0,0,0,1.574.849,11.573,11.573,0,0,0,2.807.274,8.508,8.508,0,0,0,3.313-.438,3.2,3.2,0,0,0,1.232-.9.84.84,0,0,1,.561-.343.763.763,0,0,1,.644.151.8.8,0,0,1,.37.548.814.814,0,0,1-.15.657,4.3,4.3,0,0,1-2.177,1.588,11.831,11.831,0,0,1-3.792.493,12.573,12.573,0,0,1-3.536-.413Zm1.027-11.569a3.439,3.439,0,0,0-1.575.89,2.967,2.967,0,0,0-.671.959,5.665,5.665,0,0,0-.4,1.369h10.269a5.587,5.587,0,0,0-.424-1.465,2.932,2.932,0,0,0-.781-1.027,3.576,3.576,0,0,0-1.547-.767,9.79,9.79,0,0,0-2.368-.246,9.226,9.226,0,0,0-2.5.287Z" transform="translate(-293.144 -211.724)" fill="#002f4f"/>
      <path id="Path_4024" d="M643.035,346.42a4.525,4.525,0,0,1-2.163-1.315,4.447,4.447,0,0,1-1.068-2.231,16.9,16.9,0,0,1-.246-3.053,10.593,10.593,0,0,1,.411-3.163,4.876,4.876,0,0,1,3.436-3.437,10.6,10.6,0,0,1,3.163-.41,10.912,10.912,0,0,1,2.971.356,5.606,5.606,0,0,1,2.094,1.068,4.988,4.988,0,0,1,1.342,1.916,8.958,8.958,0,0,1,.575,2.738,1.115,1.115,0,0,1-.055.356.771.771,0,0,1-.192.3.672.672,0,0,1-.274.205.911.911,0,0,1-.356.069H641.311a13.384,13.384,0,0,0,.205,2.642,3.193,3.193,0,0,0,.671,1.493,3.117,3.117,0,0,0,1.575.849,11.564,11.564,0,0,0,2.807.274,8.51,8.51,0,0,0,3.313-.438,3.192,3.192,0,0,0,1.232-.9.841.841,0,0,1,.561-.343.764.764,0,0,1,.644.151.8.8,0,0,1,.37.548.813.813,0,0,1-.151.657,4.3,4.3,0,0,1-2.177,1.588,11.831,11.831,0,0,1-3.792.493,12.572,12.572,0,0,1-3.534-.413Zm1.027-11.569a3.44,3.44,0,0,0-1.574.89,2.954,2.954,0,0,0-.671.959,5.635,5.635,0,0,0-.4,1.369h10.268a5.57,5.57,0,0,0-.424-1.465,2.928,2.928,0,0,0-.78-1.027,3.582,3.582,0,0,0-1.547-.767,9.789,9.789,0,0,0-2.369-.246,9.228,9.228,0,0,0-2.5.287Z" transform="translate(-393.09 -211.724)" fill="#002f4f"/>
      <path id="Path_4025" d="M581.031,332.81h.6a.894.894,0,0,1,.62.228.737.737,0,0,1,.283.677.75.75,0,0,1-.283.629,1.663,1.663,0,0,1-.823.222l-.392-.027s.823.027,0,.027a6.6,6.6,0,0,0-2.058.275,2.886,2.886,0,0,0-1.317.851,3.813,3.813,0,0,0-.768,1.619,10.894,10.894,0,0,0-.247,2.524v6.145a.878.878,0,0,1-1.756,0V333.69a.878.878,0,1,1,1.756,0v.521a4.571,4.571,0,0,1,1.838-1.056,8.593,8.593,0,0,1,2.551-.342Z" transform="translate(-351.702 -211.724)" fill="#002f4f"/>
      <path id="Path_4026" d="M581.031,332.81h.6a.894.894,0,0,1,.62.228.737.737,0,0,1,.283.677.75.75,0,0,1-.283.629,1.663,1.663,0,0,1-.823.222l-.392-.027s.823.027,0,.027a6.6,6.6,0,0,0-2.058.275,2.886,2.886,0,0,0-1.317.851,3.813,3.813,0,0,0-.768,1.619,10.894,10.894,0,0,0-.247,2.524v6.145a.878.878,0,0,1-1.756,0V333.69a.878.878,0,1,1,1.756,0v.521a4.571,4.571,0,0,1,1.838-1.056,8.593,8.593,0,0,1,2.551-.342Z" transform="translate(-312.811 -211.724)" fill="#002f4f"/>
      <g id="Group_1895" transform="translate(231.334 115.704)">
        <path id="Path_82" d="M710.038,339.414a.892.892,0,0,1-1.777,0V321.592a.888.888,0,0,1,1.777,0v17.134S710.045,339.252,710.038,339.414Z" transform="translate(-696.768 -320.704)" fill="#002f4f"/>
        <path id="Path_95" d="M679.4,346.174a4.788,4.788,0,0,1-3.374-3.374,12.157,12.157,0,0,1,0-6.211,4.788,4.788,0,0,1,3.374-3.375,10.412,10.412,0,0,1,3.106-.4,10.834,10.834,0,0,1,2.823.322,4.167,4.167,0,0,1,3.013,2.752.977.977,0,0,1,.05.6c-.076.2-.042.151-.241.35a.569.569,0,0,1-.5.113.859.859,0,0,1-.538-.241l-.016-.047a2.918,2.918,0,0,0-2.35-1.9,9.545,9.545,0,0,0-2.245-.229,9.064,9.064,0,0,0-2.461.282,3.317,3.317,0,0,0-2.419,2.42,10.863,10.863,0,0,0,0,4.92,3.317,3.317,0,0,0,2.419,2.42,9.066,9.066,0,0,0,2.461.282,9.526,9.526,0,0,0,2.245-.228c.618-.153,2.421-1.059,2.366-1.644.119-.422.346-.466.58-.438a3.214,3.214,0,0,1,.352.059c.168.067.184.067.268.209s.338.519.159.662c-.2,1.773-2.359,2.563-3.147,2.778a10.819,10.819,0,0,1-2.823.323,10.4,10.4,0,0,1-3.1-.4Z" transform="translate(-675.623 -327.112)" fill="#002f4f"/>
      </g>
      <g id="Group_4428" transform="translate(191.263 110.132)">
        <g id="Group_4382" transform="translate(30.147 28.65) rotate(175.99)">
          <g id="Group_4378" transform="translate(11.244)">
            <g id="Mask_Group_9" clip-path="url(#clip-path)">
              <path id="Path_7632" d="M0,0,31.791.035l.037,33.015L.037,33.015Z" transform="translate(-4.845 -3.95)" fill="url(#linear-gradient)"/>
            </g>
            <g id="Mask_Group_10" transform="translate(0 0.038)" clip-path="url(#clip-path-2)">
              <path id="Path_7633" d="M0,0,22.381.025l.025,22.355L.025,22.355Z" transform="translate(-4.848 -4.864)" fill="url(#linear-gradient-2)"/>
            </g>
          </g>
          <g id="Group_4379" transform="translate(0 2.056)">
            <g id="Mask_Group_11" clip-path="url(#clip-path-3)">
              <path id="Path_7634" d="M0,0,29.785.033l.036,31.731L.036,31.731Z" transform="translate(-2.656 -3.591)" fill="url(#linear-gradient-3)"/>
            </g>
            <g id="Mask_Group_12" transform="translate(1.835 10.472) rotate(-4.012)" clip-path="url(#clip-path-4)">
              <path id="Path_7635" d="M0,0,22.837.025l.025,22.847L.025,22.847Z" transform="translate(-5.331 -2.352)" fill="url(#linear-gradient-4)"/>
            </g>
          </g>
        </g>
        <g id="Group_4383" transform="translate(10.397 11.312)">
          <path id="Rectangle_3684" d="M0,0H3.317V9.387H0Z" transform="translate(9.387 2.869) rotate(90)" fill="url(#linear-gradient-5)"/>
          <path id="Rectangle_3683" d="M0,0H3.037V9.448H0Z" transform="translate(3.161)" fill="url(#linear-gradient-6)"/>
        </g>
      </g>
    </g>
    <text id="text" transform="translate(520.892 -9498)" fill="#002f4f" font-size="12" font-family="Quicksand-SemiBold, Quicksand" font-weight="600"><tspan x="0" y="12">Beta</tspan></text>
  </g>
</svg>
