<svg xmlns="http://www.w3.org/2000/svg" xmlns:xlink="http://www.w3.org/1999/xlink" width="145.225" height="36.599" viewBox="0 0 145.225 36.599">
  <defs>
    <clipPath id="clip-path">
      <path id="Path_7248" data-name="Path 7248" d="M0,.342.162.3l.1-.021L.437.242.517.225H.568l.1-.019H.677L.832.178H.839L.89.169h.03C1,.156,1.07.144,1.145.133h.023L1.229.124h.005L1.376.1h0L1.5.088h.046L1.6.081,1.829.055l.038,0H1.9L2.077.034l.1-.008h.007l.068,0h.036L2.5.009h.1L2.822,0H3.3a13.635,13.635,0,0,1,10.4,4.891,13.437,13.437,0,0,1,2.9,11.056h0l-.006.03-.012.061-.008.039-.005.029v.005h0v.012h0v.014h0c-.005.023-.01.046-.014.068h0c-.007.035-.014.068-.022.1v.012l-.006.03v.061l-.015.066v.011l-.006.028h0l-.008.033h0v.023h0v.011h0v.005c-.006.024-.012.049-.018.073h0l-.01.04h0l-.013.055v.018h0l-.009.034-.005.021v.022c-.006.026-.013.051-.02.077v.006l-.006.025h0L16.4,17v.027h0c-.008.027-.015.053-.023.08h0c-.009.033-.019.065-.028.1v.01l-.015.05V17.3c-.007.026-.015.051-.023.077v.008l-.009.029-.011.034h0v.007h0v.012c-.007.024-.015.048-.023.072v.005h0l-.012.035h0l-.015.047v.016h0v.009l0,.014v.029l-.007.022v.019l-.023.066v.019l-.022.065v.005h0v.005h0V17.9h0l-.022.065h0v.005h0l-.012.036v.01l-.014.037v.011l-.022.059h0v.01l-.005.016v.006c-.009.025-.019.049-.028.073v.006h0l-.007.02v.01l-.01.026V18.3h0v.009h0v.011h0c-.009.024-.019.047-.028.07V18.4l-.014.034h0l-.02.048V18.5l-.018.043h0l-.006.014h0v.016l-.03.072v.012l-.006.016v.01l-.012.027h0v.005h0v.005h0v.005h0v.005l-.025.057h0v0h0v.005l-.016.036h0v.005l-.013.032v.009h0l-.021.048v.009l-.005.013h0v.013l-.028.061v.012l-.034.072h0c-.011.024-.022.048-.034.072h0v.005h0l-.018.037v.005h0l-.016.034v.007h0l-.021.043v.009h0l-.008.016h0v.008l-.036.071v.01l-.013.026h0l-.017.033h0l-.037.07h0l-.018.034h0l-.019.035h0v.012h0l-.022.043h0v.009l-.007.013h0l-.041.075h0v.005l-.014.027h0l-.014.026h0l-.03.054h0l-.019.034h0v.005l-.012.02v.005h0l-.04.071v.006h0l-.044.074h0l-.013.022V20.3l-.019.031h0l-.037.061h0l-.02.033h0l-.021.036h0l-.025.039h0v0l-.018.028h0c-.013.02-.026.041-.039.06h0V20.6h0V20.6c.054-.074-.02.039-.178.266h0l-.046.067h0l-.011.016h0l-.022.032h0l-.037.052h0l-.024.035-.429.11c-.109.156-.237.337-.378.531h0l-.055.078q.118-.173.217-.316l.016-.023-.033.045h0l-.024.032h0l-.019.026h0c-.014.019-.029.038-.044.057h0v0h0c-.016.021-.033.042-.05.063h0l-.02.027h0l-.009.012-.018.022h0l-.034.042h0l-.027.034h0l-.015.018h0l-.05.06h0l-.006.007h0l-.053.061h0l-.017.019h0l-.026.031h0l-.045.053h0l-.029.034h0l-.011.012h0l-.06.067h0c.05-.045.1-.089.146-.14a3.644,3.644,0,0,1-.5.429h0l-.012.009h0l-.005,0h-.005l-.006,0h-.026l-.01.006h-.037l-.008,0h-.027l-.012.007h-.093l-.009.005h-.005l-.012.006h-.592c-2.2.922-4.66,1.442-6.779,2.487A10.492,10.492,0,0,0,3.849,26.58c-.13.089-.145.046-.153.028s-.021-.039-.03-.058-.019-.038-.027-.057-.016-.037-.023-.056-.014-.036-.021-.054-.012-.035-.016-.053-.01-.035-.014-.051l-.011-.051a.475.475,0,0,0-.007-.05.439.439,0,0,1-.005-.048c0-.016,0-.032,0-.047v-.091l.005-.043.008-.043.011-.042a.143.143,0,0,1,.012-.041h0c0-.013.01-.027.015-.04l.016-.039.019-.038.021-.037.022-.036a.411.411,0,0,1,.024-.035h0l.026-.035h0l.027-.034.029-.034h0l.03-.032h0l.031-.032h0l.033-.031h0l.033-.03h0l.034-.032h0c.012-.01.023-.019.036-.028h0l.036-.029h0c.391-.3.905-.5,1.06-.747l-.883.159a.289.289,0,0,1-.147,0h0a.18.18,0,0,1-.053-.028.2.2,0,0,1-.057-.062l-.009-.016h0a.656.656,0,0,1-.034-.071h0a.7.7,0,0,1-.04-.125h0c0-.022-.008-.044-.011-.066h0c-.07-.728,1.449-.855,1.924-1.02a.646.646,0,0,1,.161-.321c.329-.339,1.873-.51,2.457-.721a5.6,5.6,0,0,0,2.293-1.791,4.681,4.681,0,0,1-2.14,1.185c-.875.057-.952-.715-.494-.975,1.9-1.26,3.266-3.482,5.058-4.441a3.651,3.651,0,0,1,.884-.336A12.289,12.289,0,0,0,11.3,4.344,12.482,12.482,0,0,0,.047.355Z" transform="translate(0 0)" fill="none"/>
    </clipPath>
    <clipPath id="clip-path-2">
      <path id="Path_7249" data-name="Path 7249" d="M2.029.25a12.432,12.432,0,0,1,9.905,4.96,12.513,12.513,0,0,1,2.051,10.912A11.818,11.818,0,0,0,10.891,2.359,13.5,13.5,0,0,0,3.3,0,13.714,13.714,0,0,0,1.5.114,13.392,13.392,0,0,0,0,.4L.045.411A12.492,12.492,0,0,1,2.029.25Z" transform="translate(0 0)" fill="none"/>
    </clipPath>
    <clipPath id="clip-path-3">
      <path id="Path_7246" data-name="Path 7246" d="M16.87,25.184l-.163.038-.1.021-.179.039-.08.016H16.3l-.1.019h-.009l-.156.028h0l-.051.009H15.95l-.224.036H15.7l-.061.009h-.006l-.14.02h0l-.12.016h-.047l-.055.007-.233.025h-.07l-.179.016-.1.008h-.111l-.213.013H14.35l-.089,0h-.005l-.216.009h-.471A13.762,13.762,0,0,1,3.139,20.695,13.091,13.091,0,0,1,.226,9.791h0l.006-.03L.244,9.7l.008-.038.005-.029V9.627h0v-.01h0V9.6c0-.022.01-.045.014-.066h0c.007-.034.014-.067.022-.1V9.422L.3,9.392v-.06l.015-.066V9.255l.006-.027h0L.329,9.2h0V9.179h0V9.17h0V9.165c.006-.024.012-.048.018-.072h0l.01-.039h0L.37,9V8.977l.009-.033.005-.021V8.9C.391,8.876.4,8.851.4,8.825V8.819l.007-.024h0l.01-.037h0V8.736h0c.008-.027.015-.053.022-.08h0c.009-.032.019-.064.028-.1v-.01L.487,8.5V8.5l0-.014V8.465l.024-.076V8.382l.009-.029.01-.033h0V8.305h0V8.3l.022-.071V8.218l.012-.035h0l.015-.046v-.01h0V8.121l0-.014V8.09h0V8.083l.007-.022V8.043C.6,8.021.61,8,.617,7.978V7.956c.007-.022.015-.043.022-.065h0V7.886h0V7.869h0L.662,7.8h0l.013-.036v-.01l.013-.037v-.01l.022-.059h0v-.01l.006-.017V7.607c.009-.024.018-.047.028-.071V7.53h0l.008-.02V7.5l.01-.024V7.468h0V7.459h0V7.45h0c.009-.024.019-.046.028-.07h0V7.375L.8,7.341h0l.02-.047V7.276c.005-.014.012-.028.018-.042h0L.848,7.22h0V7.2l.03-.071V7.122l.006-.016V7.1L.9,7.069V7.064h0V7.059h0V7.053h0V7.048l.025-.056h0v0h0l.016-.036V6.947h0L.95,6.915V6.9l.022-.047V6.82l.006-.013h0V6.794l.028-.06V6.722c.011-.024.022-.047.034-.071h0l.035-.072h0V6.575h0l.018-.036V6.532h0L1.109,6.5V6.471h0l.021-.043v-.01L1.138,6.4h0V6.395l.036-.07v-.01l.013-.025h0L1.2,6.257h0l.036-.069h0l.018-.033h0l.018-.034h0V6.106h0L1.3,6.065h0V6.058L1.3,6.044h0l.041-.075h0l.014-.026h0l.015-.025h0l.03-.053h0l.02-.033V5.823h0l.012-.02V5.794l.041-.07V5.718h0l.044-.072V5.64h0l.013-.022h0l.019-.031h0l.038-.06h0L1.611,5.5h0l.022-.036h0l.024-.038h0l.019-.028h0l.038-.059v0h0l0-.007h0V5.316c-.055.072.02-.038.179-.262h0l.046-.066h0l.011-.016h0l.022-.031h0l.037-.052h0l.024-.034-.005.008c.109-.154.238-.333.379-.524h0l.055-.077-.218.312L2.231,4.6l.034-.045h0l.024-.031h0l.019-.025h0c.014-.019.029-.038.044-.056h0v0h0L2.4,4.372h0l.021-.025h0l.009-.01.018-.022h0l.034-.042h0L2.51,4.24h0l.015-.017h0l.049-.059h0l.005-.007h0l.052-.061h0l.017-.019h0l.026-.03h0l.046-.052h0L2.75,3.96h0l.011-.012h0l.06-.066h0c-.05.045-.1.087-.147.138a3.585,3.585,0,0,1,.5-.423h0l.012-.009h0l.006,0h.042l.009-.007h.039l.007-.005h.029l.012-.007h.091l.009-.005h.005l.012-.006H4.476c2.2-.909,4.671-1.422,6.8-2.452A10.6,10.6,0,0,0,13.013.055c.13-.087.145-.045.154-.028l.03.057c.01.019.019.038.027.056s.016.037.023.055.014.036.02.053.013.035.017.052.01.034.014.051l.011.05a.459.459,0,0,0,.007.049A.206.206,0,0,0,13.321.5a.134.134,0,0,1,0,.046V.589a.371.371,0,0,1,0,.045l-.005.043a.173.173,0,0,1-.009.043L13.3.761c0,.014-.008.027-.012.04h0c0,.013-.01.026-.015.039s-.011.025-.017.038a.366.366,0,0,1-.019.038c-.006.012-.013.024-.021.037l-.022.036-.024.035h0l-.026.034h0l-.027.033-.029.032h0l-.029.032h0l-.031.031h0l-.033.031h0l-.033.03h0l-.035.029h0l-.036.028h0l-.036.028h0c-.392.3-.907.5-1.063.738l.885-.157a.288.288,0,0,1,.148,0h0a.181.181,0,0,1,.053.027A.2.2,0,0,1,12.933,2l.009.016h0a.5.5,0,0,1,.033.069h0a.757.757,0,0,1,.04.123h0a.583.583,0,0,1,.01.064h0c.069.718-1.454.843-1.929,1.005a.639.639,0,0,1-.161.316,11.487,11.487,0,0,1-2.463.71,5.616,5.616,0,0,0-2.3,1.767A4.718,4.718,0,0,1,8.319,4.9c.877-.057.955.705.5.962C6.911,7.107,5.54,9.3,3.745,10.244a3.727,3.727,0,0,1-.886.331A11.962,11.962,0,0,0,5.279,20.714a12.576,12.576,0,0,0,9.558,4.61,12.855,12.855,0,0,0,1.99-.153Z" transform="translate(0 0)" fill="none"/>
    </clipPath>
    <clipPath id="clip-path-4">
      <path id="Path_7247" data-name="Path 7247" d="M13.016,15.873A12.485,12.485,0,0,1,1.025,0a11.793,11.793,0,0,0,3.1,13.764,13.559,13.559,0,0,0,7.612,2.359,13.956,13.956,0,0,0,1.8-.113,13.621,13.621,0,0,0,1.508-.279l-.044-.013a12.571,12.571,0,0,1-1.991.155Z" transform="translate(0 0)" fill="none"/>
    </clipPath>
  </defs>
  <g id="LOGO_W_1" data-name="LOGO W 1" transform="translate(-407.882 9428)">
    <g id="logo" transform="translate(266.164 -9532.115)">
      <path id="Path_4020" data-name="Path 4020" d="M393.33,339.5a.843.843,0,0,1-.612-.254.814.814,0,0,1-.258-.6V321.558a.815.815,0,0,1,.258-.6.865.865,0,0,1,1.224,0,.815.815,0,0,1,.258.6v16.229h11.31a.845.845,0,0,1,.612.254.828.828,0,0,1,0,1.2.844.844,0,0,1-.612.254Z" transform="translate(-250.741 -204.788)" fill="#fff"/>
      <path id="Path_4021" data-name="Path 4021" d="M429.4,323.867a.812.812,0,0,1-.258-.6v-1.708a.814.814,0,0,1,.258-.6.865.865,0,0,1,1.224,0,.815.815,0,0,1,.258.6v1.708a.813.813,0,0,1-.258.6.865.865,0,0,1-1.224,0Zm0,15.375a.813.813,0,0,1-.258-.6V326.683a.815.815,0,0,1,.258-.6.866.866,0,0,1,1.224,0,.816.816,0,0,1,.258.6v11.959a.814.814,0,0,1-.258.6.865.865,0,0,1-1.224,0Z" transform="translate(-271.603 -204.788)" fill="#fff"/>
      <path id="Path_4022" data-name="Path 4022" d="M443.157,346.572a.767.767,0,0,1-.3-.367l-5.22-12.181a.81.81,0,0,1-.027-.68.825.825,0,0,1,.462-.462.814.814,0,0,1,.679-.028.83.83,0,0,1,.462.463l4.432,10.332,4.432-10.332a.827.827,0,0,1,.462-.463.814.814,0,0,1,.68.028.829.829,0,0,1,.462.462.813.813,0,0,1-.027.68l-5.22,12.181a.77.77,0,0,1-.3.367.876.876,0,0,1-.979,0Z" transform="translate(-276.325 -211.685)" fill="#fff"/>
      <path id="Path_4023" data-name="Path 4023" d="M470.6,346.324a4.493,4.493,0,0,1-2.148-1.305,4.409,4.409,0,0,1-1.06-2.215,16.76,16.76,0,0,1-.245-3.032,10.53,10.53,0,0,1,.408-3.14,4.843,4.843,0,0,1,3.412-3.413,10.529,10.529,0,0,1,3.14-.407,10.828,10.828,0,0,1,2.95.354,5.571,5.571,0,0,1,2.08,1.06,4.952,4.952,0,0,1,1.332,1.9,8.893,8.893,0,0,1,.571,2.719,1.105,1.105,0,0,1-.054.353.767.767,0,0,1-.191.3.667.667,0,0,1-.272.2.9.9,0,0,1-.354.068H468.885a13.285,13.285,0,0,0,.2,2.623,3.166,3.166,0,0,0,.666,1.482,3.1,3.1,0,0,0,1.563.843,11.486,11.486,0,0,0,2.787.272,8.446,8.446,0,0,0,3.29-.435,3.173,3.173,0,0,0,1.224-.9.834.834,0,0,1,.557-.34.757.757,0,0,1,.639.15.8.8,0,0,1,.367.544.808.808,0,0,1-.149.652,4.269,4.269,0,0,1-2.162,1.577,11.746,11.746,0,0,1-3.766.489A12.484,12.484,0,0,1,470.6,346.324Zm1.02-11.487a3.415,3.415,0,0,0-1.563.883,2.946,2.946,0,0,0-.666.952,5.619,5.619,0,0,0-.394,1.359h10.2a5.551,5.551,0,0,0-.421-1.455,2.912,2.912,0,0,0-.775-1.019,3.551,3.551,0,0,0-1.536-.762,9.717,9.717,0,0,0-2.352-.244A9.163,9.163,0,0,0,471.617,334.836Z" transform="translate(-293.116 -211.703)" fill="#fff"/>
      <path id="Path_4024" data-name="Path 4024" d="M643.011,346.324a4.491,4.491,0,0,1-2.148-1.305,4.412,4.412,0,0,1-1.06-2.215,16.76,16.76,0,0,1-.245-3.032,10.522,10.522,0,0,1,.408-3.14,4.842,4.842,0,0,1,3.412-3.413,10.533,10.533,0,0,1,3.141-.407,10.832,10.832,0,0,1,2.95.354,5.566,5.566,0,0,1,2.08,1.06,4.953,4.953,0,0,1,1.332,1.9,8.894,8.894,0,0,1,.571,2.719,1.111,1.111,0,0,1-.054.353.77.77,0,0,1-.191.3.669.669,0,0,1-.272.2.9.9,0,0,1-.354.068H641.3a13.3,13.3,0,0,0,.2,2.623,3.172,3.172,0,0,0,.666,1.482,3.1,3.1,0,0,0,1.563.843,11.481,11.481,0,0,0,2.787.272,8.449,8.449,0,0,0,3.29-.435,3.169,3.169,0,0,0,1.223-.9.834.834,0,0,1,.557-.34.758.758,0,0,1,.639.15.8.8,0,0,1,.367.544.808.808,0,0,1-.15.652,4.266,4.266,0,0,1-2.162,1.577,11.748,11.748,0,0,1-3.766.489A12.483,12.483,0,0,1,643.011,346.324Zm1.019-11.487a3.416,3.416,0,0,0-1.563.883,2.929,2.929,0,0,0-.666.952,5.589,5.589,0,0,0-.394,1.359h10.2a5.53,5.53,0,0,0-.421-1.455,2.907,2.907,0,0,0-.775-1.019,3.556,3.556,0,0,0-1.536-.762,9.717,9.717,0,0,0-2.352-.244A9.165,9.165,0,0,0,644.03,334.836Z" transform="translate(-392.925 -211.703)" fill="#fff"/>
      <path id="Path_4025" data-name="Path 4025" d="M580.987,332.81h0s.592,0,.591,0a.888.888,0,0,1,.616.227.733.733,0,0,1,.281.672.745.745,0,0,1-.281.624,1.654,1.654,0,0,1-.818.22l-.389-.027h0s.817.027,0,.027a6.549,6.549,0,0,0-2.043.273,2.866,2.866,0,0,0-1.307.845,3.789,3.789,0,0,0-.763,1.607,10.817,10.817,0,0,0-.245,2.506v6.1a.872.872,0,0,1-1.744,0v-12.2a.872.872,0,0,1,1.744,0v.518a4.538,4.538,0,0,1,1.824-1.049,8.535,8.535,0,0,1,2.533-.34Z" transform="translate(-351.665 -211.703)" fill="#fff"/>
      <path id="Path_4026" data-name="Path 4026" d="M580.987,332.81h0s.592,0,.591,0a.888.888,0,0,1,.616.227.733.733,0,0,1,.281.672.745.745,0,0,1-.281.624,1.654,1.654,0,0,1-.818.22l-.389-.027h0s.817.027,0,.027a6.549,6.549,0,0,0-2.043.273,2.866,2.866,0,0,0-1.307.845,3.789,3.789,0,0,0-.763,1.607,10.817,10.817,0,0,0-.245,2.506v6.1a.872.872,0,0,1-1.744,0v-12.2a.872.872,0,0,1,1.744,0v.518a4.538,4.538,0,0,1,1.824-1.049,8.535,8.535,0,0,1,2.533-.34Z" transform="translate(-312.757 -211.703)" fill="#fff"/>
      <g id="Group_1895" data-name="Group 1895" transform="translate(231.408 115.74)">
        <path id="Path_82" data-name="Path 82" d="M710.026,339.281a.886.886,0,0,1-1.764,0c0-.212,0-.678,0-.678h0v-4.671h0V321.586a.882.882,0,0,1,1.764,0V326h0v1.764h0v6.173h0V338.6h0S710.032,339.121,710.026,339.281Z" transform="translate(-696.85 -320.704)" fill="#fff"/>
        <path id="Path_95" data-name="Path 95" d="M679.374,346.08a4.754,4.754,0,0,1-3.35-3.35,12.066,12.066,0,0,1,0-6.167,4.753,4.753,0,0,1,3.35-3.351,10.335,10.335,0,0,1,3.083-.4,10.761,10.761,0,0,1,2.8.32,4.137,4.137,0,0,1,2.992,2.732.973.973,0,0,1,.05.591c-.075.2-.042.15-.24.348a.566.566,0,0,1-.493.112.853.853,0,0,1-.534-.239l-.016-.047a2.9,2.9,0,0,0-2.333-1.882,9.474,9.474,0,0,0-2.229-.227,9,9,0,0,0-2.443.28,3.293,3.293,0,0,0-2.4,2.4,10.788,10.788,0,0,0,0,4.886,3.293,3.293,0,0,0,2.4,2.4,9,9,0,0,0,2.443.28,9.457,9.457,0,0,0,2.229-.226c.614-.152,2.4-1.051,2.35-1.632.118-.419.344-.462.576-.435a3.186,3.186,0,0,1,.349.058c.166.067.183.067.266.208s.336.515.158.657c-.194,1.76-2.342,2.545-3.125,2.758a10.746,10.746,0,0,1-2.8.321A10.326,10.326,0,0,1,679.374,346.08Z" transform="translate(-675.623 -327.152)" fill="#fff"/>
      </g>
      <g id="Group_4428" data-name="Group 4428" transform="translate(191.378 110.11)">
        <g id="Group_4382" data-name="Group 4382" transform="matrix(-0.998, 0.07, -0.07, -0.998, 29.965, 28.652)">
          <g id="Group_4378" data-name="Group 4378" transform="translate(11.202 0)">
            <g id="Mask_Group_9" data-name="Mask Group 9" transform="translate(0 0.002)" clip-path="url(#clip-path)">
              <path id="Path_7632" data-name="Path 7632" d="M0,0,31.477.025,31.5,33,.026,32.977Z" transform="translate(-4.796 -3.943)" fill="#fff"/>
            </g>
            <g id="Mask_Group_10" data-name="Mask Group 10" transform="translate(0 0.037)" clip-path="url(#clip-path-2)">
              <path id="Path_7633" data-name="Path 7633" d="M0,0,22.158.018l.017,22.174L.017,22.174Z" transform="translate(-4.798 -4.822)" fill="#fff"/>
            </g>
          </g>
          <g id="Group_4379" data-name="Group 4379" transform="translate(0 2.372)">
            <g id="Mask_Group_11" data-name="Mask Group 11" transform="translate(0 0)" clip-path="url(#clip-path-3)">
              <path id="Path_7634" data-name="Path 7634" d="M0,0,29.526.023l.025,31.312L.025,31.312Z" transform="translate(-2.626 -3.536)" fill="#fff"/>
            </g>
            <g id="Mask_Group_12" data-name="Mask Group 12" transform="matrix(0.998, -0.07, 0.07, 0.998, 1.819, 10.261)" clip-path="url(#clip-path-4)">
              <path id="Path_7635" data-name="Path 7635" d="M0,0,22.65.017l.017,22.661L.017,22.661Z" transform="translate(-5.284 -2.331)" fill="#fff"/>
            </g>
          </g>
        </g>
        <g id="Group_4383" data-name="Group 4383" transform="translate(10.317 11.335)">
          <rect id="Rectangle_3684" data-name="Rectangle 3684" width="3.294" height="9.321" transform="translate(9.321 2.849) rotate(90)" fill="#fff"/>
          <rect id="Rectangle_3683" data-name="Rectangle 3683" width="3.015" height="9.381" transform="translate(3.138 0)" fill="#fff"/>
        </g>
      </g>
    </g>
    <text id="text" transform="translate(521.108 -9428)" fill="#fff" font-size="12" font-family="Quicksand-SemiBold, Quicksand" font-weight="600"><tspan x="0" y="12">Beta</tspan></text>
  </g>
</svg>
