<svg xmlns="http://www.w3.org/2000/svg" width="12.578" height="16.294" viewBox="0 0 12.578 16.294">
    <defs>
        <style>
            .cls-3{fill:#a7a6a6;stroke:#a7a6a7;stroke-width:.3px;opacity:.3}
        </style>
    </defs>
    <g id="tax" transform="translate(-59.658 0.2)">
        <g id="Group_1544" transform="translate(59.858)">
            <g id="Group_1543" fill="#dbdbdb" transform="translate(0)">
                <path id="Path_3752" stroke="#dbdbdb" stroke-width="0.4px" d="M71.256 0H60.638a.781.781 0 0 0-.78.78v14.335a.781.781 0 0 0 .78.78h8.229a.249.249 0 0 0 .176-.073l2.92-2.92a.249.249 0 0 0 .073-.176V.78a.781.781 0 0 0-.78-.78zm-2.14 15.045v-1.789a.282.282 0 0 1 .282-.282h1.788zm2.422-2.568H69.4a.781.781 0 0 0-.78.78V15.4h-7.98a.282.282 0 0 1-.282-.282V.78a.282.282 0 0 1 .28-.28h10.618a.282.282 0 0 1 .282.282z" transform="translate(-59.858)"/>
                <text id="PD" font-family="Quicksand-Bold, Quicksand" font-size="4px" font-weight="700" transform="translate(4.208 4.795)">
                    <tspan x="-2.636" y="0">PD</tspan>
                </text>
            </g>
        </g>
        <g id="Group_1552" transform="translate(61.451 6.636)">
            <g id="Group_1551" transform="translate(0)">
                <path id="Path_3756" d="M111.945 213.779h-.531a.249.249 0 0 0 0 .5h.531a.249.249 0 0 0 0-.5z" class="cls-3" transform="translate(-111.165 -213.779)"/>
            </g>
        </g>
        <g id="Group_1554" transform="translate(61.451 7.698)">
            <g id="Group_1553" transform="translate(0)">
                <path id="Path_3757" d="M111.945 247.983h-.531a.249.249 0 1 0 0 .5h.531a.249.249 0 0 0 0-.5z" class="cls-3" transform="translate(-111.165 -247.983)"/>
            </g>
        </g>
        <g id="Group_1556" transform="translate(61.451 8.76)">
            <g id="Group_1555" transform="translate(0)">
                <path id="Path_3758" d="M111.945 282.188h-.531a.249.249 0 0 0 0 .5h.531a.249.249 0 0 0 0-.5z" class="cls-3" transform="translate(-111.165 -282.188)"/>
            </g>
        </g>
        <g id="Group_1558" transform="translate(69.414 6.636)">
            <g id="Group_1557" transform="translate(0)">
                <path id="Path_3759" d="M368.479 213.779h-.531a.249.249 0 0 0 0 .5h.531a.249.249 0 0 0 0-.5z" class="cls-3" transform="translate(-367.699 -213.779)"/>
            </g>
        </g>
        <g id="Group_1560" transform="translate(69.414 7.698)">
            <g id="Group_1559" transform="translate(0)">
                <path id="Path_3760" d="M368.479 247.983h-.531a.249.249 0 0 0 0 .5h.531a.249.249 0 1 0 0-.5z" class="cls-3" transform="translate(-367.699 -247.983)"/>
            </g>
        </g>
        <g id="Group_1562" transform="translate(69.414 8.76)">
            <g id="Group_1561" transform="translate(0)">
                <path id="Path_3761" d="M368.479 282.188h-.531a.249.249 0 0 0 0 .5h.531a.249.249 0 0 0 0-.5z" class="cls-3" transform="translate(-367.699 -282.188)"/>
            </g>
        </g>
        <g id="Group_1564" transform="translate(63.044 6.636)">
            <g id="Group_1563" transform="translate(0)">
                <path id="Path_3762" d="M165.906 213.779h-3.185a.249.249 0 1 0 0 .5h3.186a.249.249 0 1 0 0-.5z" class="cls-3" transform="translate(-162.472 -213.779)"/>
            </g>
        </g>
        <g id="Group_1566" transform="translate(63.044 7.698)">
            <g id="Group_1565" transform="translate(0)">
                <path id="Path_3763" d="M164.845 247.983h-2.124a.249.249 0 1 0 0 .5h2.124a.249.249 0 0 0 0-.5z" class="cls-3" transform="translate(-162.472 -247.983)"/>
            </g>
        </g>
        <g id="Group_1568" transform="translate(63.044 8.76)">
            <g id="Group_1567" transform="translate(0)">
                <path id="Path_3764" d="M165.906 282.188h-3.185a.249.249 0 1 0 0 .5h3.186a.249.249 0 0 0 0-.5z" class="cls-3" transform="translate(-162.472 -282.188)"/>
            </g>
        </g>
        <g id="Group_1572" transform="translate(61.448 10.884)">
            <g id="Group_1571" transform="translate(0)">
                <path id="Path_3766" d="M198.783 350.6h-1.858a.249.249 0 1 0 0 .5h1.858a.249.249 0 1 0 0-.5z" class="cls-3" transform="translate(-196.676 -350.597)"/>
            </g>
        </g>
        <g id="Group_1574" transform="translate(61.448 13.007)">
            <g id="Group_1573" transform="translate(0)">
                <path id="Path_3767" d="M197.987 419.006h-1.062a.249.249 0 1 0 0 .5h1.062a.249.249 0 1 0 0-.5z" class="cls-3" transform="translate(-196.676 -419.006)"/>
            </g>
        </g>
        <g id="Group_1576" transform="translate(63.572 13.007)">
            <g id="Group_1575" transform="translate(0)">
                <path id="Path_3768" d="M265.866 419.006h-.531a.249.249 0 0 0 0 .5h.531a.249.249 0 1 0 0-.5z" class="cls-3" transform="translate(-265.086 -419.006)"/>
            </g>
        </g>
        <g id="Group_1578" transform="translate(61.448 11.946)">
            <g id="Group_1577" transform="translate(0)">
                <path id="Path_3769" d="M200.376 384.8h-3.451a.249.249 0 0 0 0 .5h3.451a.249.249 0 1 0 0-.5z" class="cls-3" transform="translate(-196.676 -384.802)"/>
            </g>
        </g>
        <g id="Group_1580" transform="translate(66.229 7.698)">
            <g id="Group_1579">
                <circle id="Ellipse_1262" cx=".249" cy=".249" r=".249" class="cls-3"/>
            </g>
        </g>
        <g id="Group_1582" transform="translate(67.291 7.698)">
            <g id="Group_1581" transform="translate(0)">
                <circle id="Ellipse_1263" cx=".249" cy=".249" r=".249" class="cls-3"/>
            </g>
        </g>
        <g id="Group_1584" transform="translate(68.353 7.698)">
            <g id="Group_1583">
                <circle id="Ellipse_1264" cx=".249" cy=".249" r=".249" class="cls-3"/>
            </g>
        </g>
        <g id="Group_1586" transform="translate(67.291 6.636)">
            <g id="Group_1585" transform="translate(0)">
                <circle id="Ellipse_1265" cx=".249" cy=".249" r=".249" class="cls-3"/>
            </g>
        </g>
        <g id="Group_1588" transform="translate(68.353 6.636)">
            <g id="Group_1587">
                <circle id="Ellipse_1266" cx=".249" cy=".249" r=".249" class="cls-3"/>
            </g>
        </g>
        <g id="Group_1590" transform="translate(67.291 8.76)">
            <g id="Group_1589" transform="translate(0)">
                <circle id="Ellipse_1267" cx=".249" cy=".249" r=".249" class="cls-3"/>
            </g>
        </g>
        <g id="Group_1592" transform="translate(68.353 8.76)">
            <g id="Group_1591">
                <circle id="Ellipse_1268" cx=".249" cy=".249" r=".249" class="cls-3"/>
            </g>
        </g>
    </g>
</svg>
